/* XPM */
static char * close_inactive_xpm[] = {
"26 26 15 1",
" 	c None",
".	c #6A6A6A",
"+	c #E5E5E5",
"@	c #D6D6D6",
"#	c #D2D2D2",
"$	c #C6C6C6",
"%	c #BDBDBD",
"&	c #BCBCBC",
"*	c #CECECE",
"=	c #BFBFBF",
"-	c #C3C3C3",
";	c #C5C5C5",
">	c #CCCCCC",
",	c #C4C4C4",
"'	c #CDCDCD",
"..........................",
"++++++++++++++++++++++++++",
"@@@@@@@@@@@@@@@@@@@@@@@@@@",
"@@@@@@@@@@@@@@@@@@@@@@@@@@",
"@@@@@@@@@@@@@@@@@@@@@@@@@@",
"@@@@@@@@@@@@@@@@@@@@@@@@@@",
"@@@@@@@@@@@@@@@@@@@@@@@@@@",
"@@@@@@@@@#$%&%$#@@@@@@@@@@",
"@@@@@@@@*=-$$$-=*@@@@@@@@@",
"@@@@@@@#%;;;;;;;%>@@@@@@@@",
"@@@@@@@;,;;;;;;;,;@@@@@@@@",
"@@@@@@@%$;;;;;;;$%@@@@@@@@",
"@@@@@@@&$;;;;;;;$&@@@@@@@@",
"@@@@@@@%$;;;;;;;$%@@@@@@@@",
"@@@@@@@;,;;;;;;;,;@@@@@@@@",
"@@@@@@@#=;;;;;;;=#@@@@@@@@",
"@@@@@@@@'=-$$$-=*@@@@@@@@@",
"@@@@@@@@@#$%&%$#@@@@@@@@@@",
"@@@@@@@@@@@@@@@@@@@@@@@@@@",
"@@@@@@@@@@@@@@@@@@@@@@@@@@",
"@@@@@@@@@@@@@@@@@@@@@@@@@@",
"@@@@@@@@@@@@@@@@@@@@@@@@@@",
"@@@@@@@@@@@@@@@@@@@@@@@@@@",
"@@@@@@@@@@@@@@@@@@@@@@@@@@",
"@@@@@@@@@@@@@@@@@@@@@@@@@@",
"@@@@@@@@@@@@@@@@@@@@@@@@@@"};
