/* XPM */
static char * close_pressed_xpm[] = {
"26 26 27 1",
" 	c None",
".	c #6A6A6A",
"+	c #E5E5E5",
"@	c #D6D6D6",
"#	c #D5C4C5",
"$	c #D47C83",
"%	c #D5404C",
"&	c #D32735",
"*	c #D4ACB0",
"=	c #D43D49",
"-	c #D42735",
";	c #D13C49",
">	c #D02634",
",	c #CD2634",
"'	c #D33D49",
")	c #CEC1C5",
"!	c #D47B82",
"~	c #AF202E",
"{	c #C62432",
"]	c #D52735",
"^	c #D43F4B",
"/	c #A61F2D",
"(	c #BF2331",
"_	c #9F1D2B",
":	c #D2ABB0",
"<	c #D5D5D6",
"[	c #D7D7D7",
"..........................",
"++++++++++++++++++++++++++",
"@@@@@@@@@@@@@@@@@@@@@@@@@@",
"@@@@@@@@@@@@@@@@@@@@@@@@@@",
"@@@@@@@@@@@@@@@@@@@@@@@@@@",
"@@@@@@@@@@@@@@@@@@@@@@@@@@",
"@@@@@@@@@@@@@@@@@@@@@@@@@@",
"@@@@@@@@@#$%&%$#@@@@@@@@@@",
"@@@@@@@@*=-&&&-=*@@@@@@@@@",
"@@@@@@@#;>,&&&,>')@@@@@@@@",
"@@@@@@@!-,~{]{~,-!@@@@@@@@",
"@@@@@@@^-&{/(/{&-^@@@@@@@@",
"@@@@@@@-&&](_(]&&-@@@@@@@@",
"@@@@@@@^-&{/(/{&-^@@@@@@@@",
"@@@@@@@!-,~{]{~,-!@@@@@@@@",
"@@@@@@@#=>,&&&,>=#@@@@@@@@",
"@@@@@@@@:=-&&&-=*<@@@@@@@@",
"@@@@@@@@[#$%&%$#@@@@@@@@@@",
"@@@@@@@@@@@@@@@@@@@@@@@@@@",
"@@@@@@@@@@@@@@@@@@@@@@@@@@",
"@@@@@@@@@@@@@@@@@@@@@@@@@@",
"@@@@@@@@@@@@@@@@@@@@@@@@@@",
"@@@@@@@@@@@@@@@@@@@@@@@@@@",
"@@@@@@@@@@@@@@@@@@@@@@@@@@",
"@@@@@@@@@@@@@@@@@@@@@@@@@@",
"@@@@@@@@@@@@@@@@@@@@@@@@@@"};
