/* XPM */
static char * close_prelight_xpm[] = {
"26 26 33 1",
" 	c None",
".	c #6A6A6A",
"+	c #E5E5E5",
"@	c #D6D6D6",
"#	c #D5C4C5",
"$	c #D77E85",
"%	c #DB4B54",
"&	c #DF3943",
"*	c #D5ADB1",
"=	c #E04E56",
"-	c #EE4C51",
";	c #F15255",
">	c #DA4C56",
",	c #EB4D51",
"'	c #E74B50",
")	c #F05054",
"!	c #DF4E56",
"~	c #D5C3C5",
"{	c #D67E84",
"]	c #B92D38",
"^	c #DC444A",
"/	c #F35255",
"(	c #DB4A54",
"_	c #F25256",
":	c #AB2431",
"<	c #D13D44",
"[	c #E03A43",
"}	c #F25255",
"|	c #9F1D2B",
"1	c #CDA9B1",
"2	c #DF4D56",
"3	c #D9D9D9",
"4	c #D8C7C8",
"..........................",
"++++++++++++++++++++++++++",
"@@@@@@@@@@@@@@@@@@@@@@@@@@",
"@@@@@@@@@@@@@@@@@@@@@@@@@@",
"@@@@@@@@@@@@@@@@@@@@@@@@@@",
"@@@@@@@@@@@@@@@@@@@@@@@@@@",
"@@@@@@@@@@@@@@@@@@@@@@@@@@",
"@@@@@@@@@#$%&%$#@@@@@@@@@@",
"@@@@@@@@*=-;;;-=*@@@@@@@@@",
"@@@@@@@#>,')))',!~@@@@@@@@",
"@@@@@@@{-']^/^]'-{@@@@@@@@",
"@@@@@@@(_)^:<:^)_(@@@@@@@@",
"@@@@@@@[})/<|</)}[@@@@@@@@",
"@@@@@@@(_)^:<:^)_(@@@@@@@@",
"@@@@@@@{-']^/^]'-{@@@@@@@@",
"@@@@@@@#!,')))',!#@@@@@@@@",
"@@@@@@@@12-;;;-=*@@@@@@@@@",
"@@@@@@@@34$%&%$#@@@@@@@@@@",
"@@@@@@@@@@@@@@@@@@@@@@@@@@",
"@@@@@@@@@@@@@@@@@@@@@@@@@@",
"@@@@@@@@@@@@@@@@@@@@@@@@@@",
"@@@@@@@@@@@@@@@@@@@@@@@@@@",
"@@@@@@@@@@@@@@@@@@@@@@@@@@",
"@@@@@@@@@@@@@@@@@@@@@@@@@@",
"@@@@@@@@@@@@@@@@@@@@@@@@@@",
"@@@@@@@@@@@@@@@@@@@@@@@@@@"};
