/* XPM */
static char * hide_pressed_xpm[] = {
"26 26 27 1",
" 	c None",
".	c #6A6A6A",
"+	c #E5E5E5",
"@	c #E4E4E4",
"#	c #D6D6D6",
"$	c #D5CFC0",
"%	c #D8B971",
"&	c #D9A834",
"*	c #D99E11",
"=	c #D9B972",
"-	c #D6D0C1",
";	c #D7C9A7",
">	c #DAA52B",
",	c #DB9E10",
"'	c #DA9E10",
")	c #D7D0C1",
"!	c #DAA62B",
"~	c #D9B971",
"{	c #DAA835",
"]	c #DB9F10",
"^	c #DCA010",
"/	c #DCA110",
"(	c #DA9F12",
"_	c #D29610",
":	c #A26513",
"<	c #945613",
"[	c #955713",
"..........................",
"+++++@@@@@@@@@@@@+++++++++",
"##########################",
"##########################",
"##########################",
"##########################",
"##########################",
"#########$%&*&=-##########",
"########;>,''',>;#########",
"#######)!'''''''!)########",
"#######~'''''''''~########",
"#######{]^/^^^/^]{########",
"#######(_:<[[[<:_(########",
"#######{]^/^^^/^]{########",
"#######~'''''''''~########",
"#######)!'''''''!)########",
"########;>,''',>;#########",
"#########$=&*&=-##########",
"##########################",
"##########################",
"##########################",
"##########################",
"##########################",
"##########################",
"##########################",
"##########################"};
