/* XPM */
static char * maximize_prelight_xpm[] = {
"26 26 48 1",
" 	c None",
".	c #6A6A6A",
"+	c #E5E5E5",
"@	c #D6D6D6",
"#	c #C2D4C3",
"$	c #73CE7A",
"%	c #38CF42",
"&	c #23D22F",
"*	c #A8D2AB",
"=	c #3BD546",
"-	c #35E643",
";	c #3BEE4A",
">	c #3CEE4A",
",	c #36E844",
"'	c #3BD446",
")	c #39EA47",
"!	c #3AEC49",
"~	c #2CC935",
"{	c #28C030",
"]	c #36E444",
"^	c #73CE78",
"/	c #3AED49",
"(	c #2DCE38",
"_	c #0D7D0B",
":	c #097507",
"<	c #0E810D",
"[	c #2DCA36",
"}	c #37CE42",
"|	c #2CCA35",
"1	c #2DCE37",
"2	c #3AEC48",
"3	c #2FD23A",
"4	c #0B7808",
"5	c #0A7607",
"6	c #29C231",
"7	c #3CEF4B",
"8	c #23D330",
"9	c #3CEF4A",
"0	c #28C131",
"a	c #2FD039",
"b	c #0D7F0C",
"c	c #0A7708",
"d	c #2ECF38",
"e	c #2CCB36",
"f	c #0A7507",
"g	c #0C7C0A",
"h	c #2DCC37",
"i	c #2BC834",
"..........................",
"++++++++++++++++++++++++++",
"@@@@@@@@@@@@@@@@@@@@@@@@@@",
"@@@@@@@@@@@@@@@@@@@@@@@@@@",
"@@@@@@@@@@@@@@@@@@@@@@@@@@",
"@@@@@@@@@@@@@@@@@@@@@@@@@@",
"@@@@@@@@@@@@@@@@@@@@@@@@@@",
"@@@@@@@@@#$%&%$#@@@@@@@@@@",
"@@@@@@@@*=-;>>,=*@@@@@@@@@",
"@@@@@@@#')!~{{~]=#@@@@@@@@",
"@@@@@@@^-!/(_:<[,^@@@@@@@@",
"@@@@@@@}>|1234567}@@@@@@@@",
"@@@@@@@890_a)3b098@@@@@@@@",
"@@@@@@@}76c5a2de>}@@@@@@@@",
"@@@@@@@^,[<fgh/!-^@@@@@@@@",
"@@@@@@@#=]~{{i2)'#@@@@@@@@",
"@@@@@@@@*=,>>>-=*@@@@@@@@@",
"@@@@@@@@@#$%&%$#@@@@@@@@@@",
"@@@@@@@@@@@@@@@@@@@@@@@@@@",
"@@@@@@@@@@@@@@@@@@@@@@@@@@",
"@@@@@@@@@@@@@@@@@@@@@@@@@@",
"@@@@@@@@@@@@@@@@@@@@@@@@@@",
"@@@@@@@@@@@@@@@@@@@@@@@@@@",
"@@@@@@@@@@@@@@@@@@@@@@@@@@",
"@@@@@@@@@@@@@@@@@@@@@@@@@@",
"@@@@@@@@@@@@@@@@@@@@@@@@@@"};
