/* XPM */
static char * maximize_pressed_xpm[] = {
"26 26 42 1",
" 	c None",
".	c #6A6A6A",
"+	c #E5E5E5",
"@	c #E4E4E4",
"#	c #D6D6D6",
"$	c #C2D4C3",
"%	c #71CC77",
"&	c #2FC437",
"*	c #13C01E",
"=	c #A7D1AA",
"-	c #2CC435",
";	c #13C11E",
">	c #13C21E",
",	c #13C31F",
"'	c #13C31E",
")	c #10AC17",
"!	c #0FA515",
"~	c #10A615",
"{	c #10AB17",
"]	c #12BD1D",
"^	c #70CC77",
"/	c #10AF18",
"(	c #0A7A08",
"_	c #097506",
":	c #0A7C09",
"<	c #2EC337",
"[	c #10AC18",
"}	c #11AF18",
"|	c #11B219",
"1	c #0A7607",
"2	c #097606",
"3	c #10A716",
"4	c #097A08",
"5	c #11B118",
"6	c #0A7B08",
"7	c #0FA716",
"8	c #097607",
"9	c #11B019",
"0	c #10AD18",
"a	c #097907",
"b	c #10AE18",
"c	c #10A515",
"..........................",
"++++++++++++@@@+++++++++++",
"##########################",
"##########################",
"##########################",
"##########################",
"##########################",
"#########$%&*&%$##########",
"########=-;>,,'-=#########",
"#######$-;>)!~{]-$########",
"#######^>>,/(_:)'^########",
"#######<'[}>|123,<########",
"#######;,345;|67,;########",
"#######<,38_5>90'<########",
"#######^'):_ab,>>^########",
"#######$-]{~c{>;-$########",
"########=-',,>;-=#########",
"#########$%&*&%$##########",
"##########################",
"##########################",
"##########################",
"##########################",
"##########################",
"##########################",
"##########################",
"##########################"};
