/* XPM */
static char * sun_java5_xpm[] = {
"128 128 90 1",
" 	c None",
".	c #F1F6F6",
"+	c #EEF3F3",
"@	c #E8EFEF",
"#	c #E0E9E9",
"$	c #D9E4E4",
"%	c #D5E2E2",
"&	c #F4F7F7",
"*	c #E7EEEE",
"=	c #DFE8E8",
"-	c #D7E4E4",
";	c #D3E0E0",
">	c #D2DFDF",
",	c #E4EDED",
"'	c #DBE6E6",
")	c #D4E1E1",
"!	c #CFDEDE",
"~	c #CEDDDD",
"{	c #EDF2F2",
"]	c #CDDCDC",
"^	c #C9DADA",
"/	c #C8D9D9",
"(	c #C3D6D6",
"_	c #C1D4D4",
":	c #C0D3D3",
"<	c #BCD1D1",
"[	c #BACFCF",
"}	c #B6CDCD",
"|	c #C4D7D7",
"1	c #B4CBCB",
"2	c #B3CACA",
"3	c #E6EDED",
"4	c #DCE7E7",
"5	c #B7CECE",
"6	c #E3ECEC",
"7	c #B9CECE",
"8	c #E1EAEA",
"9	c #DDE8E8",
"0	c #BBD0D0",
"a	c #B5CCCC",
"b	c #D0DFDF",
"c	c #C2D5D5",
"d	c #FCFDFD",
"e	c #FAFBFB",
"f	c #CCDBDB",
"g	c #C6D7D7",
"h	c #BFD2D2",
"i	c #F7FAFA",
"j	c #E2EBEB",
"k	c #B2C9C9",
"l	c #BDD2D2",
"m	c #EAF1F1",
"n	c #AFC8C8",
"o	c #AAC5C5",
"p	c #FBFCFC",
"q	c #F9FAFA",
"r	c #F3F6F6",
"s	c #A6C1C1",
"t	c #E9F0F0",
"u	c #ADC6C6",
"v	c #A1BEBE",
"w	c #A3C0C0",
"x	c #EFF4F4",
"y	c #C7D8D8",
"z	c #A9C4C4",
"A	c #A2BFBF",
"B	c #A8C3C3",
"C	c #F6F9F9",
"D	c #F0F5F5",
"E	c #B0C9C9",
"F	c #CADBDB",
"G	c #ACC5C5",
"H	c #AEC7C7",
"I	c #F5F8F8",
"J	c #A5C0C0",
"K	c #D6E3E3",
"L	c #A0BDBD",
"M	c #DAE5E5",
"N	c #ECF1F1",
"O	c #A7C2C2",
"P	c #9CBBBB",
"Q	c #9DBCBC",
"R	c #9FBCBC",
"S	c #9AB9B9",
"T	c #9BBABA",
"U	c #97B8B8",
"V	c #99B8B8",
"W	c #96B7B7",
"X	c #95B6B6",
"Y	c #94B5B5",
"                                                                                                                                ",
"                                                                                                                                ",
"                                                                                                                                ",
"                                                                                                                                ",
"                                                                     .+@#$%                                                     ",
"                                                                    &.+*=-;>                                                    ",
"                                                                    &.+,')!~                                                    ",
"                                                                     &{#)]^/                                                    ",
"                                                                       )^(_:                                                    ",
"                                                                        <[[[                                                    ",
"                                                                        }}}}                                                    ",
"                                                                       |[}12                                                    ",
"                                                                     34~:512                                                    ",
"                                                                    364>|712                                                    ",
"                                                                    89$!|0a1                                                    ",
"                                                                   *4%b^c05a                                                    ",
"                                                                 de@$fg_h<[7                                                    ",
"                                                                ddi*;_77<h::                                                    ",
"                                                                dd&jf7kal|/^                                                    ",
"                                                               de&m$cno1c!)%                                                    ",
"                                                         pdddddqrm#]}ssa^'6,                                                    ",
"                                                        ppddddp&t=>:uvw7b,x&                                                    ",
"                                                        dddddp&m=>y5zABl-{id                                                    ",
"                                                       ddddpCD@4!c7Eoz2g=.ddd                                                   ",
"                                                     ddddddC+6$F<kGGHa:>,Iddddd      .D                                         ",
"                                                    pdddddpDj%/[uJwoa_~4midddddd    ..DD                                        ",
"                                                    ddpdder3K/<EsLAHl]M,DqddpiCI    {xDD                                        ",
"                                                   dddpirNj%g7kzJJo7F4@Dippir{@8>  M*{xD                                        ",
"                                                 ddddde.*M!c}GOsOu}y'mIpdpiD*=-!|<_>8m+x                                        ",
"                                                ddddddI@$^l2BAvsu5()*IdddiD*'b^(hh(b9@{x                                        ",
"                                                dppei&m4f<2zwvwG}(!9NCpq&{,'>^g((g^;9*{+                                        ",
"                                               ddpCrN6$F<EBJJOu7y)9,m+{*=%bf/y/Fb%$4j*N                                         ",
"                                             dddpi.@4!|7usAJzk0^M3NN@j'bg<7<:y~-#3tmm                                           ",
"                                            ddppirm4fl2zALvOk</$@.&N8)^<kooklF%j{&qp                                            ",
"                                            ddeCD@9!hEBwvvOE<^;#m.D,K/l1GBoa(>4@&ddd                                            ",
"                                            ddix,-fhkOAwOu1:~$#6,,=;g72kk1<y)=*+idd                                             ",
"                                            dp&*K|5uJLvOk<y)8tm,'by<2GG2l^;43{.Ie                                               ",
"                                            di+9/2OLPQAHlf$,xIDj!h2oJwz7F4@x&iep                                                ",
"                                            &+,;lBRSTLB}/$6{&I+4g2BwAOE_K@&edddd                                                ",
"                                           +@8-y1wQPvB2c)6NDDN6b0owsG}:bjDqdddd                                                 ",
"                                         dCm4>y7GvRAo1:bj+rx@9>cEJwu0^%j{Ipdd                                                   ",
"                                        ddC@%|5uJLvza_~9{ii+=!(1OLJ1^4tDCedd                                                    ",
"                                        ddC3![uJLRwHh]M@Idem-|5GARs7>@&epddd                                                    ",
"                                        ddI6f2JQTRsa/M3rddq3![uJLLzh$+pddddd                                                    ",
"                                        ddIj/uLSSRz<>3rdddC8yksLRwH|4rdddddd                                                    ",
"                                        ddI#|zPUSLG_'Ddddd&4_oRTRO2y#&ddddpp                                                    ",
"                                        dd&4:OPVTAHg#CddddrMlsSVQs2/#&ddddpp                                                    ",
"                                         dD)7OLRLs2^jiddddrM<JVWSwEg=.dddddd                                                    ",
"                                           g2zsJso}F6iddddrM<JVXVLG_$+eddddd                                                    ",
"                                            HuuGou5FjIdddd&'hOSWUQB<;@&qppdd                                                    ",
"                                            5a1Euu}^8&dddd&4_zQUUTs}F9m.Cpdd                                                    ",
"                                           $^_02GBE|9rdddd&=|uvTSQwE:!4@Didd                                                    ",
"                                         dCt'~|}owzh$DddddI8/2OLQRAz1:f'mCdd                                                    ",
"                                        ddqD3M]0oLJ7)NidddI6~[HsALvwzklb6rpd                                                    ",
"                                        dde&{6-|EwJ}~6DqddC@%c}usvLLAB1/4+Cp                                                    ",
"                                         dpi&{jb<Gzag-6+ide+9~_azvQTQAu:%3xIi                                                   ",
"                                           peI{4/}kah^)j.pdI@M~luvSVSLz7]9@xIed                                                 ",
"                                            dd&3)c7}7ly-mqdeD3$y2wSUVQs1g%jN&edd                                                ",
"                                            ddqN4]|<5}l!6&ppC+j!0oLSSQwE_b9tredd                                                ",
"                                             dpx,'>g7k}g'{Cei&mMyaoAQQAHl]M*.qddd                                               ",
"                                               &+@#!lEEh>,xIqi.6;(}GARvu<F-,xqddddd                                             ",
"                                                eIm$(2E[f4*DipiN=!caBLvu<F$6xqdddddd                                            ",
"                                                ddrj][}<^%#mIpp.,-F0GvAuh!'*Dqddddpp                                            ",
"                                               pddimMfgg/]%jxep&m=bhuvvE|-6+&eddddde                                            ",
"                                     dq&{*,3@NDipderm8Mb^g^-@IeI+j%cuLA2fj+Iqpddd   r+t8$!/:7117:/!$8txCddd                     ",
"                                    deC.N*,*t+.Iqpppi&m4](|>6riI+,$|EwO7;middpdd    +{t6Mb^c0}}[:y~%9,Nrqddd                    ",
"                                    D.D{t,,@Nx.CqpddddI,)//),rCrmj-y}uE('.dddddd    Nm@j';]g:<0<:(^~%46m.Cqp                    ",
"                                   ~463366,tx&iepdddddpxj$-#{ICx,M>^_h|)*idddddd    @*,8'->~^gc:llhcyf>'6mxrI                   ",
"                         de.3$~:1uEl^>$'98,N.ipddddddddiDmmxIqIm'bff!;'3.ddddddddiDm3j8=9'M-%bf(01kk15l/>'jt.qd                 ",
"                        dpC{jKf:anu20(Fb-9,N&edddddddddpeqieper,)ygf-6m.idddddddq&xt,#==888889KF<EzJJso2hF%8+idd                ",
"                        &r+3'!g<2uGn}l(f;'8tDCeeqiiiiiqqeeeeqI+=!(cF$,NDr&CCC&&rD+N@,j8j3@@tt3=;(}uJLRLOElF'Nidd                ",
"                        ,j9Kf_[kGzzHal(FbK'8*m{+{NNNNN{+xxxx+m,$f_:gb$=###=9'''4=8j,3@tm{+xxD+@=;y<EsRPLOk:)@Cdd                ",
"                        >!f([EoOJJOH5_/f!>%$'9===9999===#888#9$>/_h_|/^^^/g(:h:(F>-=@xr&I&ICCI.N,'b:EAPPLOaf6Cdd                ",
"                        ::<auJvLLwBE0|F]~!b>>>>>>>>>>>>;;;;;;;b]y(:l<0775}1EGzu20gb4mCpddeepppqi&xj!7OQVSLug#&dd                ",
"                        5}1noOJJOzn}:/f]~]~]]fffff]]ffffff]]]]fF^g(_l075}a2nozu2<y>={qddddddddddde{-hBQWWSBc9&dd                ",
"                         k22a}}57[lcyf~~]]ffF^///^^^^^^^^^^^^^^Ffff^y|cc((c:hh:g])4*.pddddddddddddr':zPWYSO_9&dd                ",
"                           c/]~!!!!!!!!~]]fFF^///^^^^^^^^^^^^^F]!;);;;;%K$$M''4=6*mDCpdddddddddddd&9_zPWXSOc9&dd                ",
"                            8jjjj89M%b~~]]]]]]fff]ffffffffffFf]>%M49==86*tNx.&ICCiiqppdddppppddddd&9_zPWWPzc=&dd                ",
"                            .xx+{m39%~Ff~b>>>;;;;;;;>>>>>>>>>>)$9j,3*@tN+D&ipdddddddddpppppppdddddr':zQUUQz(=&dd                ",
"                            eC&&.x@4!g(/!K'9#8jj88888888888##8j3m+xDxxxxxDriddddddddddppppppdddddpx$hBQUUPz(=&dd                ",
"                            deiC&x*-y<[(b9,m+.....DDDDDDDDDDDD.&CqeqC&rD{N{.CpddddddddpppppdddpppCt%<BQUUPz(=&dd                ",
"                            dpeiIx,;:2kl!8m.Cedddppppppppppppppddddpi&.N@,,@+&CqpdddddppppddddpiI+j!7ORSSLug=&dd                ",
"                            ddpq&{j![uo}^',ND&iqiiiiiiiiiiiiiiiiCC&.xN@j9$$4j@NDCqpddddddddddde&+,$yasRPLO2FjCdd                ",
"                            ddpi.@4^aOwu0^>-'=j,3**@@@@****@@@*68='$-%>~^gg/]>$jN&epppddddddddeD,$fluARvOk:;@Cdd                ",
"                            ddp&{jK(kwRAo17l:(yF~b>>>>>>>>>>;>bfg_h<0[5a2EEk17(>jxipppddddddddim'FhEJRRsk:]9{idd                ",
"                            ddqrm=;cEwQPLJOBzun17lh:hhhhhhh:::<}nzOsssJJwwwwJzay'NIeppdddddddd&6bhkOvRAul]M*.qdd                ",
"                            ddq&N8%y5GwvvvvvAwszn2aaa111111a}a2uOvRRLvAAwwJOBua|-t&qppddddpeq&t$|1zJAJo5^$,{&edd                ",
"                            ddeCD@=;y<1EuoBOJwJBGnEEEEEEEEEEEEnGBJJJOzunk1}7l:g]$@&eddddddqrN6-y}zJJo20^-,{rCed                 ",
"                            ddpqC.N6Mb^(h7aEuozounEEEEEEEEEEEEEnnnE2}[hcyf!)$'9=    ddddddCt4~c1BLvz}c]$,+&ie                   ",
"                            ddpdpeCDtj'%~ycl51kk21111111111111a}7<hcgFb%'83NxrII    dddddqx#~lkBLRAn:!'3xCpd                    ",
"                            ppdddddi.{3=%~^gc:hllhhhhhhhhhhlll:cg/fb)$4j@+.ipddd    peiCr{,%(auOJsG}g%j{Cpdd                    ",
"                            ppdddddpir{6'>~!>;));>>>>>>>>>>>>>;%$'=8,@mx&ipddddd    &.+@=-~|[2E2}0:(F-,.qddd                    ",
"                            ppdddddpqCx3';>-8@NNmt@@@@@@@@@t@ttm{xD.&Ciepdddddddddp&+t8K^h512a[cf;--   Cpddd                    ",
"                            ppddddpei&+6$>>4tIpdpeiiiqqqqqqqqqqeepppdddddddddddddderm8-/5uBG20(b9*NN    dddd                    ",
"                            ddddddpi&+@9>f]-*&eppeqeqqqqqqqeeeqqiiCIICCCCCiiqepdddiD@4>(}uoE[|~'*DCp    ddpp                    ",
"                           ddddddde.t=-](h:^Kj@tmtmmmttttttmmmt@,6j#=99=8j3mx&CiqirNjM>^clh(]%'6N&d     ddp                     ",
"                         dddddddddqN4~([2nE}:/~b>;))))))))))%);bf/g(_::(gF>',{.rr.+*=-);)%$96@mN    ddddd                       ",
"                        ddddddddddi*;_auOJJOu2}7<h::::::::::::l7aEuoBOzuk5_~'@+Dx{t64$$9,ND&ICii    dddd                        ",
"                        ppppeeeddd&,>:1uOwvvwOBGnk222222222212EuBwvRRRvJo2lF'*+x+Nt,=493xidddddd    dddd                        ",
"                       dpqiCC&&CCIx6KF:}nBwLLRLAJOBzBBBBBBBzzBOwLPSTQLJzE7cb=m.&rD+m*,*{&pdddddd    ddd                         ",
"                     dddqCr.x+{{{{t,#$>g<kzwLPSPRvAAAvvvvvvAAvLQSVSRwBna<(~M*.iiiC&rDxD&idddddddddd                             ",
"                    dddeID{mt@*3333@t@8K^l2GJLPPRLLLLLLLLLLLLLLQPPRJu10c^b$6+Cpddpeeqqqeppdddddddddd                            ",
"                    CC&DN@,66666,,*m+xN8%/:5EoOssOssssssssOOOOOOOOok7:y~)'8m.edddddddddddddddddppppq                            ",
"                   666j#9''4=86,*tNx&C.Nj$>fgcl07}}a}}}}}}}}}57[<hcy]>K48,mDCpddddddddddddddddddpei&+                           ",
"                 j9-bfFFF]!)'=6@Nx.Iiei&+t,j#9M%b]F^FFFFFFff]~b;K'98j3@m{x.CqpddddddddddddddddddeC&x@j'                         ",
"                j=$~c52a7:g]%96tx&iqpppeqCIII&.N,#94999999==#j,t+.ICCCCiiiqeppdddddddddddddddddqI.{t,j=4                        ",
"                $->g5GOzn}lgb$8@+rCqeppddddddddq.{tttmmmmmmN{+.IpddddddddddddddddddpppeeeeeeeqC.N*68==9=                        ",
"                ^/c[nJAJzk7cf%46mx&CiqpdddddddddpC&&&&&&&&&IIiedddddddddddddddddddddeiCCCI&r.xm6')>>%$'8t                       ",
"                a1kuOAvwBnalg!K96t+D.Iidddddddddddpppppppppdddddddddddddddddddddddddi&Dxx+{m@64>/:hcF>$j+id                     ",
"                JJJwAvAJOGk7_^bK483tN+.Cpddddddddddddddddddddddddddddddddddddddddddq.Nt@*3j#'-!(5EE5c~$,Dqdd                    ",
"                AAAAvvAwsBu2[_y]>K'9=j,tx.&&&&&&ICCCCCiiiCCCCCCIIIIIICCCII&&&&&&I&.N3#4''$-)bfgl1nE7g>'@.qdd                    ",
"                GGzOJAvvvwsoEa7lcg/Ff~b)$'44449=86,333****333333,,,,,,,6j8#=94'444M%bf^ygg(c::l077h/)93{rqd                     ",
"                0[5koJvLRRLAszGnE2a}}57<h:::::cg^]~bb>>>>>>>>>>>>bb>>>b~]Fygc:::::h05}1kEEEEk15<c^b',ND&C                       ",
"                f^gl1osALLRLLAwwJJsOOOOOBBzBBBon25[<lh::::::hhhhhhh:::h<5a2nGzBOBBOOOJJwwwwJOG2lF%=tDCed                        ",
"                $K>F_5kHoBOJJJwAvLLLLLRRQQPPTPRAOoHEEk2222222222222222knGBswLRQQRRRLLvAwwJsJJBEl]'*Diddd                        ",
"                ,68'%~^|_l[}2EuzswvLLLRPSUWWWWUSRAJsOOOBOOOOOOOOOOOBBBOJALRQPTTPQRvwsBGEa551uBu<~=m&edd                         ",
"                Dx+N@,89$%bfg:0anoOOsJwLTUWXWWUVSQRRLLLLLLLLLLLLLLLLLLLRPTTPQRLvwszuE}<(F!bf:                                   ",
"                qqiiiC&DN*j4KbFc<akEnnGOARPTPPQQQRRRRRRRRRRRRRRRRRRRRRRRQQRLwsBouE17h|f%463,                                    ",
"                dddddddpC.N*j4-b^ch<<051nGBBzzzzzzBBBBBBBBBBBBBBBBBBBBBBBBzuE2}5[l_gf>-=*ND&                                    ",
"                 dddddddpID{m@,=M%>bb!~Fy(ccc((ccccccccccccccccccccccccccc(|/Ff~!>%$48,@NDI                                     ",
"                           ...D+m@3333,j8==9====99999999999999999999999999==8j6,,3@tN+xD.                                       ",
"                            qqqiiCCCCCCCI&&&&&&&&&&&&&&&&&&&&&&&&&&&&&&&&&&&IICCCCCiiiqi                                        ",
"                            dddddddddddddddddddddddddddddddddddddddddddddddddddddddddddd                                        ",
"                             dddddddddddddddddddddddddddddddddddddddddddddddddddddddddd                                         ",
"                                                                                                                                ",
"                                                                                                                                ",
"                                                                                                                                ",
"                                                                                                                                "};
